<mxfile host="65bd71144e" modified="2020-11-27T03:04:54.151Z" agent="5.0 (Windows NT 10.0; Win64; x64) AppleWebKit/537.36 (KHTML, like Gecko) Code/1.51.1 Chrome/83.0.4103.122 Electron/9.3.3 Safari/537.36" version="13.6.5" etag="0XPK5w5dW1Vg7GQZoq4y">
    <diagram id="K645mmI27sVLZANpBULa" name="第 1 页">
        <mxGraphModel dx="1089" dy="790" grid="1" gridSize="10" guides="1" tooltips="1" connect="1" arrows="1" fold="1" page="1" pageScale="1" pageWidth="827" pageHeight="1169" math="0" shadow="0">
            <root>
                <mxCell id="0"/>
                <mxCell id="1" parent="0"/>
                <mxCell id="35" value="" style="rounded=0;whiteSpace=wrap;html=1;strokeColor=#00CC00;" parent="1" vertex="1">
                    <mxGeometry x="532.5" y="220" width="85" height="60" as="geometry"/>
                </mxCell>
                <mxCell id="34" value="" style="rounded=0;whiteSpace=wrap;html=1;strokeColor=#00CC00;" parent="1" vertex="1">
                    <mxGeometry x="225" y="215" width="85" height="60" as="geometry"/>
                </mxCell>
                <mxCell id="26" value="" style="rounded=0;whiteSpace=wrap;html=1;strokeColor=#FFFF00;" parent="1" vertex="1">
                    <mxGeometry x="370" y="215" width="120" height="60" as="geometry"/>
                </mxCell>
                <mxCell id="25" value="" style="rounded=0;whiteSpace=wrap;html=1;strokeColor=#FFFF00;" parent="1" vertex="1">
                    <mxGeometry x="60" y="215" width="120" height="60" as="geometry"/>
                </mxCell>
                <mxCell id="23" value="" style="rounded=0;whiteSpace=wrap;html=1;strokeColor=#FF99CC;" parent="1" vertex="1">
                    <mxGeometry x="390" y="145" width="270" height="60" as="geometry"/>
                </mxCell>
                <mxCell id="22" value="" style="rounded=0;whiteSpace=wrap;html=1;strokeColor=#FF99CC;" parent="1" vertex="1">
                    <mxGeometry x="90" y="145" width="190" height="60" as="geometry"/>
                </mxCell>
                <mxCell id="21" value="frist第一次对" style="rounded=0;whiteSpace=wrap;html=1;strokeColor=#3824F0;" parent="1" vertex="1">
                    <mxGeometry x="130" y="65" width="410" height="60" as="geometry"/>
                </mxCell>
                <mxCell id="2" value="1" style="ellipse;whiteSpace=wrap;html=1;aspect=fixed;" parent="1" vertex="1">
                    <mxGeometry x="150" y="70" width="50" height="50" as="geometry"/>
                </mxCell>
                <mxCell id="3" value="2" style="ellipse;whiteSpace=wrap;html=1;aspect=fixed;" parent="1" vertex="1">
                    <mxGeometry x="110" y="150" width="50" height="50" as="geometry"/>
                </mxCell>
                <mxCell id="4" value="3" style="ellipse;whiteSpace=wrap;html=1;aspect=fixed;" parent="1" vertex="1">
                    <mxGeometry x="200" y="150" width="50" height="50" as="geometry"/>
                </mxCell>
                <mxCell id="5" value="4" style="ellipse;whiteSpace=wrap;html=1;aspect=fixed;" parent="1" vertex="1">
                    <mxGeometry x="60" y="220" width="50" height="50" as="geometry"/>
                </mxCell>
                <mxCell id="6" value="5" style="ellipse;whiteSpace=wrap;html=1;aspect=fixed;" parent="1" vertex="1">
                    <mxGeometry x="130" y="220" width="50" height="50" as="geometry"/>
                </mxCell>
                <mxCell id="7" value="6" style="ellipse;whiteSpace=wrap;html=1;aspect=fixed;" parent="1" vertex="1">
                    <mxGeometry x="240" y="220" width="50" height="50" as="geometry"/>
                </mxCell>
                <mxCell id="12" value="1" style="ellipse;whiteSpace=wrap;html=1;aspect=fixed;" parent="1" vertex="1">
                    <mxGeometry x="460" y="70" width="50" height="50" as="geometry"/>
                </mxCell>
                <mxCell id="13" value="2" style="ellipse;whiteSpace=wrap;html=1;aspect=fixed;" parent="1" vertex="1">
                    <mxGeometry x="420" y="150" width="50" height="50" as="geometry"/>
                </mxCell>
                <mxCell id="14" value="3" style="ellipse;whiteSpace=wrap;html=1;aspect=fixed;" parent="1" vertex="1">
                    <mxGeometry x="510" y="150" width="50" height="50" as="geometry"/>
                </mxCell>
                <mxCell id="15" value="44" style="ellipse;whiteSpace=wrap;html=1;aspect=fixed;" parent="1" vertex="1">
                    <mxGeometry x="370" y="220" width="50" height="50" as="geometry"/>
                </mxCell>
                <mxCell id="16" value="55" style="ellipse;whiteSpace=wrap;html=1;aspect=fixed;" parent="1" vertex="1">
                    <mxGeometry x="440" y="220" width="50" height="50" as="geometry"/>
                </mxCell>
                <mxCell id="17" value="6" style="ellipse;whiteSpace=wrap;html=1;aspect=fixed;" parent="1" vertex="1">
                    <mxGeometry x="550" y="220" width="50" height="50" as="geometry"/>
                </mxCell>
                <mxCell id="18" value="9" style="ellipse;whiteSpace=wrap;html=1;aspect=fixed;" parent="1" vertex="1">
                    <mxGeometry x="590" y="150" width="50" height="50" as="geometry"/>
                </mxCell>
                <mxCell id="24" value="second第二次" style="text;html=1;strokeColor=none;fillColor=none;align=center;verticalAlign=middle;whiteSpace=wrap;rounded=0;" parent="1" vertex="1">
                    <mxGeometry x="300" y="165" width="40" height="20" as="geometry"/>
                </mxCell>
                <mxCell id="27" value="" style="curved=1;endArrow=classic;html=1;exitX=0.442;exitY=1;exitDx=0;exitDy=0;exitPerimeter=0;" parent="1" source="25" edge="1">
                    <mxGeometry width="50" height="50" relative="1" as="geometry">
                        <mxPoint x="510" y="390" as="sourcePoint"/>
                        <mxPoint x="430" y="280" as="targetPoint"/>
                        <Array as="points">
                            <mxPoint x="140" y="380"/>
                            <mxPoint x="420" y="360"/>
                        </Array>
                    </mxGeometry>
                </mxCell>
                <mxCell id="32" value="third第三次对比" style="text;html=1;strokeColor=none;fillColor=none;align=center;verticalAlign=middle;whiteSpace=wrap;rounded=0;" parent="1" vertex="1">
                    <mxGeometry x="200" y="340" width="110" height="20" as="geometry"/>
                </mxCell>
                <mxCell id="36" value="" style="curved=1;endArrow=classic;html=1;entryX=0.676;entryY=1;entryDx=0;entryDy=0;entryPerimeter=0;exitX=0.5;exitY=1;exitDx=0;exitDy=0;" parent="1" source="34" target="35" edge="1">
                    <mxGeometry width="50" height="50" relative="1" as="geometry">
                        <mxPoint x="510" y="390" as="sourcePoint"/>
                        <mxPoint x="560" y="340" as="targetPoint"/>
                        <Array as="points">
                            <mxPoint x="320" y="420"/>
                            <mxPoint x="575" y="370"/>
                        </Array>
                    </mxGeometry>
                </mxCell>
                <mxCell id="37" value="fouth第四次对比" style="text;html=1;strokeColor=none;fillColor=none;align=center;verticalAlign=middle;whiteSpace=wrap;rounded=0;" parent="1" vertex="1">
                    <mxGeometry x="400" y="370" width="100" height="20" as="geometry"/>
                </mxCell>
                <mxCell id="40" value="&lt;h1&gt;diff对比逻辑&lt;/h1&gt;&lt;div&gt;1.能不移动就不移动&lt;/div&gt;&lt;div&gt;2.没办法，只能移动&lt;/div&gt;&lt;div&gt;3.实在不行，新建或删除&lt;/div&gt;" style="text;html=1;strokeColor=none;fillColor=none;spacing=5;spacingTop=-20;whiteSpace=wrap;overflow=hidden;rounded=0;" vertex="1" parent="1">
                    <mxGeometry x="610" y="380" width="200" height="100" as="geometry"/>
                </mxCell>
                <mxCell id="41" value="&lt;h1&gt;比较流程&lt;/h1&gt;&lt;div&gt;1.先找到不需要移动的相同节点，消耗最小&amp;nbsp;&lt;/div&gt;&lt;div&gt;2.再找相同的，但是需要移动 节点，消耗第二小&lt;/div&gt;&lt;div&gt;3.最好找不到，新建或者删除节点&lt;/div&gt;" style="text;html=1;strokeColor=none;fillColor=none;spacing=5;spacingTop=-20;whiteSpace=wrap;overflow=hidden;rounded=0;" vertex="1" parent="1">
                    <mxGeometry x="37.5" y="400" width="200" height="130" as="geometry"/>
                </mxCell>
                <mxCell id="42" value="比较结果后直接修改真实dom节点，&lt;br&gt;新旧 Vnode 树是拿来比较的，页面DOM 树是拿来根据比较结果修改的" style="text;html=1;strokeColor=none;fillColor=none;align=center;verticalAlign=middle;whiteSpace=wrap;rounded=0;" vertex="1" parent="1">
                    <mxGeometry x="30" y="540" width="202.5" height="90" as="geometry"/>
                </mxCell>
                <mxCell id="46" value="" style="edgeStyle=orthogonalEdgeStyle;rounded=0;orthogonalLoop=1;jettySize=auto;html=1;" edge="1" parent="1" source="44" target="45">
                    <mxGeometry relative="1" as="geometry"/>
                </mxCell>
                <mxCell id="44" value="&lt;span&gt;新头&amp;nbsp; === 旧头&lt;/span&gt;" style="rhombus;whiteSpace=wrap;html=1;strokeColor=#FFFFFF;" vertex="1" parent="1">
                    <mxGeometry x="314" y="630" width="100" height="80" as="geometry"/>
                </mxCell>
                <mxCell id="45" value="oldStartIdx++&lt;br&gt;newStartIdx++&lt;br&gt;updateNode" style="rhombus;whiteSpace=wrap;html=1;strokeColor=#FFFFFF;" vertex="1" parent="1">
                    <mxGeometry x="314" y="750" width="100" height="80" as="geometry"/>
                </mxCell>
                <mxCell id="47" value="是" style="text;html=1;strokeColor=none;fillColor=none;align=center;verticalAlign=middle;whiteSpace=wrap;rounded=0;" vertex="1" parent="1">
                    <mxGeometry x="360" y="720" width="40" height="20" as="geometry"/>
                </mxCell>
            </root>
        </mxGraphModel>
    </diagram>
</mxfile>